<?xml version="1.0" encoding="utf-8"?>
<!-- Generator: Adobe Illustrator 15.0.0, SVG Export Plug-In  -->
<!DOCTYPE svg PUBLIC "-//W3C//DTD SVG 1.1 Tiny//EN" "http://www.w3.org/Graphics/SVG/1.1/DTD/svg11-tiny.dtd" [
	<!ENTITY ns_flows "http://ns.adobe.com/Flows/1.0/">
]>
<svg version="1.1" baseProfile="tiny"
	 xmlns="http://www.w3.org/2000/svg" xmlns:xlink="http://www.w3.org/1999/xlink" xmlns:a="http://ns.adobe.com/AdobeSVGViewerExtensions/3.0/"
	 x="0px" y="0px" width="480px" height="190px" viewBox="-7.4 -32.2 480 190" xml:space="preserve">
<defs>
</defs>
<rect x="238.7" width="140" height="110"/>
<path d="M52.2,17.3c189.5,42,174-63,170,19s-77,69-77,69l-104-52"/>
<rect x="382.2" y="4" width="74.7" height="58.7"/>
<g>
	<path d="M24.3,145.7c-1.3,0.6-4.3,1.6-8.1,1.6c-8.5,0-14-5.8-14-14.4c0-8.7,5.9-15,15.1-15c3,0,5.7,0.8,7.1,1.5l-1.2,3.9
		c-1.2-0.6-3.1-1.3-5.9-1.3c-6.5,0-10,4.8-10,10.7c0,6.5,4.2,10.5,9.8,10.5c2.9,0,4.8-0.7,6.3-1.3L24.3,145.7z"/>
	<path d="M30.3,127.3c0-3.3-0.1-6.2-0.2-8.8h4.5l0.2,5.6H35c1.3-3.8,4.4-6.2,7.9-6.2c0.5,0,0.9,0.1,1.4,0.1v4.8
		c-0.5-0.1-1-0.1-1.7-0.1c-3.6,0-6.2,2.7-6.9,6.5c-0.1,0.7-0.2,1.6-0.2,2.4v15h-5.1V127.3z"/>
	<path d="M51.7,133.6c0.1,6.9,4.5,9.8,9.7,9.8c3.7,0,5.9-0.6,7.8-1.5l0.9,3.7c-1.8,0.8-5,1.8-9.4,1.8c-8.7,0-13.9-5.8-13.9-14.3
		S51.8,118,60,118c9.3,0,11.6,8,11.6,13.2c0,1-0.1,1.8-0.2,2.4H51.7z M66.7,129.9c0.1-3.2-1.3-8.3-7.1-8.3c-5.2,0-7.5,4.7-7.9,8.3
		H66.7z"/>
	<path d="M97.8,140c0,2.4,0.1,4.8,0.4,6.8h-4.6l-0.4-3.6H93c-1.6,2.2-4.6,4.2-8.6,4.2c-5.7,0-8.6-4-8.6-8.1
		c0-6.8,6.1-10.5,16.9-10.5v-0.6c0-2.3-0.6-6.5-6.4-6.5c-2.7,0-5.4,0.8-7.4,2.1l-1.2-3.4c2.3-1.5,5.8-2.4,9.3-2.4
		c8.6,0,10.7,5.9,10.7,11.5V140z M92.8,132.3c-5.6-0.1-11.9,0.9-11.9,6.3c0,3.4,2.2,4.9,4.8,4.9c3.7,0,6.1-2.3,6.9-4.7
		c0.2-0.6,0.2-1.2,0.2-1.6V132.3z"/>
	<path d="M112,111.8v6.8h7.3v3.9H112v15.2c0,3.5,1,5.5,3.8,5.5c1.4,0,2.2-0.1,3-0.3l0.2,3.9c-1,0.3-2.6,0.7-4.5,0.7
		c-2.4,0-4.3-0.8-5.5-2.2c-1.4-1.6-2-4.1-2-7.4v-15.4h-4.4v-3.9h4.4v-5.2L112,111.8z"/>
	<path d="M125.1,127.3c0-3.3-0.1-6.2-0.2-8.8h4.5l0.2,5.6h0.2c1.3-3.8,4.4-6.2,7.9-6.2c0.5,0,0.9,0.1,1.4,0.1v4.8
		c-0.5-0.1-1-0.1-1.7-0.1c-3.6,0-6.2,2.7-6.9,6.5c-0.1,0.7-0.2,1.6-0.2,2.4v15h-5.1V127.3z"/>
	<path d="M150.1,110.6c0,1.7-1.2,3.1-3.3,3.1c-1.9,0-3.1-1.4-3.1-3.1c0-1.7,1.3-3.2,3.2-3.2C148.8,107.4,150.1,108.8,150.1,110.6z
		 M144.4,146.7v-28.2h5.1v28.2H144.4z"/>
	<path d="M160,118.5l5.5,15.8c0.9,2.6,1.7,5,2.3,7.3h0.2c0.6-2.3,1.5-4.7,2.4-7.3l5.5-15.8h5.4l-11.1,28.2h-4.9l-10.7-28.2H160z"/>
	<path d="M188.3,133.6c0.1,6.9,4.5,9.8,9.7,9.8c3.7,0,5.9-0.6,7.8-1.5l0.9,3.7c-1.8,0.8-5,1.8-9.4,1.8c-8.7,0-13.9-5.8-13.9-14.3
		s5-15.1,13.2-15.1c9.3,0,11.6,8,11.6,13.2c0,1-0.1,1.8-0.2,2.4H188.3z M203.3,129.9c0.1-3.2-1.3-8.3-7.1-8.3
		c-5.2,0-7.5,4.7-7.9,8.3H203.3z"/>
</g>
</svg>
