<?xml version="1.0" encoding="utf-8"?>
<!-- Generator: Adobe Illustrator 15.0.0, SVG Export Plug-In  -->
<!DOCTYPE svg PUBLIC "-//W3C//DTD SVG 1.1//EN" "http://www.w3.org/Graphics/SVG/1.1/DTD/svg11.dtd" [
	<!ENTITY ns_flows "http://ns.adobe.com/Flows/1.0/">
]>
<svg version="1.1"
	 xmlns="http://www.w3.org/2000/svg" xmlns:xlink="http://www.w3.org/1999/xlink" xmlns:a="http://ns.adobe.com/AdobeSVGViewerExtensions/3.0/"
	 x="0px" y="0px" width="438px" height="158px" viewBox="0 0 438 158" enable-background="new 0 0 438 158" xml:space="preserve">
<defs>
</defs>
<circle fill="#007876" cx="103" cy="49.5" r="41.8"/>
<g>
	<path fill="#007876" d="M151,91.3c-0.5,0-1.1-0.5-1.1-1V9.9c0-0.6,0.4-1.1,1.1-1.1h36.6c0.7,0,1.2,0.4,1.4,1.1l4.1,21.9
		c0.1,0.8,0.4,1.1,0.7,1.1s0.5-0.4,0.5-1.2l3.3-21.7c0.1-0.7,0.7-1.2,1.5-1.2h38c1,0,1.5,0.4,1.5,1.2v80.2c0,0.7-0.7,1.1-1.5,1.1
		h-24.7c-0.8,0-1.5-0.4-1.5-1.2V55.7c0-0.9-0.1-1.2-0.4-1.2c-0.3,0-0.5,0.4-1,2.2l-7.1,33.8c-0.1,0.7-0.8,0.9-1.5,0.9h-15.5
		c-0.7,0-1.2-0.4-1.5-1.2l-6.3-31.5c-0.4-1.9-1-2.2-1.4-2.2s-0.7,0.5-0.7,1.4v32.2c0,0.8-0.4,1.2-1.4,1.2H151z"/>
</g>
<g>
	<path fill="#9F3021" d="M265.5,68.5c-0.1-0.6-0.4-0.8-0.7-0.8s-0.4,0.3-0.4,0.9v21.2c0,0.7-0.8,1.4-1.8,1.4h-22.8
		c-0.8,0-1.6-0.8-1.6-1.6V9.9c0-0.6,0.5-1.1,1.2-1.1h23.2c1.1,0,1.8,0.4,1.8,1.1V29c0,0.4,0.1,0.8,0.4,0.8s0.5-0.2,0.8-0.8L271,9.8
		c0.3-0.6,0.8-1,1.5-1h24.1c0.5,0,1,0.3,1,0.9c0,0.2,0,0.4-0.1,0.7L280,46.8c-0.3,0.4-0.4,1.2-0.4,1.4c0,0.2,0.1,0.9,0.3,1.2
		l17.9,40.8c0.3,0.7,0,1.1-0.8,1.1h-25.2c-0.5,0-1-0.3-1.1-0.9L265.5,68.5z"/>
</g>
<g>
	<path fill="#007876" d="M20.3,91.4c-0.9,0-1.8-0.7-1.8-1.5V32.4c0-0.8-0.8-1.3-1.7-1.3H3.7c-0.8,0-1.7-0.9-1.7-1.5V10
		c0-0.7,0.4-1.1,1.2-1.1h56c0.9,0,1.7,0.4,1.7,1.3v19.4c0,0.9-0.8,1.5-1.8,1.5H45.9c-0.9,0-1.6,0.5-1.6,1.5V90
		c0,0.8-0.8,1.4-1.8,1.4H20.3z"/>
</g>
<g>
	<path fill="#E75625" d="M107,137.3c-2,1.3-4.5,1.9-7.3,1.9c-3.7,0-6.8-1.3-9.1-3.9c-2.3-2.6-3.4-5.9-3.4-10.1
		c0-4.4,1.3-7.9,3.9-10.7c2.6-2.8,5.9-4.2,9.9-4.2c2.1,0,4.1,0.4,6.1,1.3v2.8c-2-1.2-4.1-1.8-6.5-1.8c-3.2,0-5.8,1.2-7.8,3.5
		c-2,2.3-3,5.3-3,9c0,3.6,0.9,6.4,2.8,8.6c1.8,2.2,4.3,3.2,7.3,3.2c2.8,0,5.2-0.7,7.2-2.2V137.3z"/>
	<path fill="#E75625" d="M143.1,113.6c-0.8-0.6-1.8-0.9-2.9-0.9c-2.2,0-4,1.1-5.5,3.4c-1.5,2.2-2.2,5.4-2.2,9.5v12.9h-2.4V111h2.4
		v6.1h0.1c0.6-2.1,1.6-3.7,3-4.9c1.4-1.2,2.9-1.7,4.7-1.7c1,0,1.9,0.2,2.7,0.5V113.6z"/>
	<path fill="#E75625" d="M164.3,124.8c0,3.8,0.9,6.7,2.6,8.9c1.7,2.1,4.1,3.2,7.2,3.2c3.1,0,6.1-1.1,9-3.4v2.6c-2.8,2-6,3-9.5,3
		c-3.5,0-6.4-1.3-8.6-3.8c-2.2-2.5-3.3-6.1-3.3-10.8c0-4,1.1-7.4,3.4-10.1c2.3-2.7,5.3-4.1,8.9-4.1c3.4,0,6,1.2,7.9,3.6
		c1.8,2.4,2.7,5.7,2.7,9.8v1.1H164.3z M182.1,122.6c-0.1-3.2-0.9-5.6-2.3-7.4c-1.4-1.8-3.4-2.6-5.9-2.6c-2.6,0-4.7,0.9-6.4,2.6
		c-1.7,1.7-2.7,4.2-3.1,7.4H182.1z"/>
	<path fill="#E75625" d="M224.4,138.5V133h-0.1c-0.9,1.9-2.2,3.4-3.8,4.5c-1.7,1.1-3.5,1.7-5.6,1.7c-2.6,0-4.7-0.7-6.2-2.2
		c-1.5-1.5-2.3-3.3-2.3-5.6c0-4.8,3.2-7.7,9.5-8.7l8.5-1.3c0-5.9-2.2-8.9-6.7-8.9c-3,0-6,1.2-8.8,3.7v-3c1-0.8,2.4-1.5,4.1-2.1
		c1.7-0.6,3.4-0.9,4.9-0.9c2.8,0,5,0.9,6.6,2.6c1.5,1.8,2.3,4.3,2.3,7.7v17.9H224.4z M216.8,124.8c-2.9,0.4-4.9,1.1-6.1,2
		c-1.2,0.9-1.7,2.4-1.7,4.5c0,1.6,0.5,3,1.6,4c1.1,1.1,2.6,1.6,4.5,1.6c2.6,0,4.9-1,6.6-2.9c1.8-2,2.6-4.5,2.6-7.6v-2.7L216.8,124.8
		z"/>
	<path fill="#E75625" d="M262.5,138.1c-1.3,0.6-2.5,0.9-3.6,0.9c-4.1,0-6.1-2.4-6.1-7.3v-18.5h-4.9V111h4.9v-7.1
		c0.4-0.1,0.8-0.3,1.2-0.4c0.4-0.1,0.8-0.3,1.2-0.4v8h7.3v2.3h-7.3v18.2c0,1.9,0.3,3.3,0.9,4.1c0.6,0.9,1.6,1.3,3,1.3
		c1,0,2.1-0.3,3.3-1V138.1z"/>
	<path fill="#E75625" d="M285.7,104c-0.5,0-1-0.2-1.4-0.6c-0.4-0.4-0.6-0.9-0.6-1.5c0-0.6,0.2-1.1,0.6-1.4c0.4-0.4,0.9-0.6,1.4-0.6
		c0.6,0,1,0.2,1.5,0.5c0.4,0.4,0.6,0.8,0.6,1.5c0,0.6-0.2,1.1-0.6,1.5C286.8,103.8,286.3,104,285.7,104z M284.5,138.5V111h2.5v27.5
		H284.5z"/>
	<path fill="#E75625" d="M321.3,138.5H319L308.4,111h2.8l8.2,21.9c0.4,1.1,0.7,2,0.8,2.9h0.1c0.2-1.1,0.5-2,0.8-2.8l8.5-22h2.7
		L321.3,138.5z"/>
	<path fill="#E75625" d="M354.3,124.8c0,3.8,0.9,6.7,2.6,8.9c1.7,2.1,4.1,3.2,7.2,3.2c3.1,0,6.1-1.1,9-3.4v2.6c-2.8,2-6,3-9.5,3
		c-3.5,0-6.4-1.3-8.6-3.8c-2.2-2.5-3.3-6.1-3.3-10.8c0-4,1.1-7.4,3.4-10.1c2.3-2.7,5.3-4.1,8.9-4.1c3.4,0,6,1.2,7.9,3.6
		c1.8,2.4,2.7,5.7,2.7,9.8v1.1H354.3z M372,122.6c-0.1-3.2-0.9-5.6-2.3-7.4c-1.4-1.8-3.4-2.6-5.9-2.6c-2.6,0-4.7,0.9-6.4,2.6
		c-1.7,1.7-2.7,4.2-3.1,7.4H372z"/>
</g>
<g>
	<polygon fill="#9F3122" points="302.4,91.3 344.2,7.5 386,91.3 	"/>
</g>
<g>
	<g>
		<path fill="#9F3021" d="M393.6,91.4c-1,0-1.9-0.7-1.9-1.5V32.4c0-0.8-0.8-1.3-1.8-1.3h-13.7c-0.8,0-1.8-0.9-1.8-1.5V10
			c0-0.7,0.4-1.1,1.2-1.1h58.5c1,0,1.8,0.4,1.8,1.3v19.4c0,0.9-0.8,1.5-1.9,1.5h-13.7c-1,0-1.6,0.5-1.6,1.5V90
			c0,0.8-0.8,1.4-1.9,1.4H393.6z"/>
	</g>
</g>
<rect x="236.7" y="8.8" fill="#9F3021" width="11" height="82.5"/>
<rect x="225.8" y="8.8" fill="#007876" width="11" height="82.5"/>
</svg>
